HIERARCHY
ROOT Hips
{
  OFFSET 57.8838 95.319 338.509
  CHANNELS 6 Xposition Yposition Zposition Zrotation Xrotation Yrotation
  JOINT LeftUpLeg
  {
    OFFSET 8.64259 1.95398 -2.38835
    CHANNELS 3 Zrotation Xrotation Yrotation
    JOINT LeftLeg
    {
      OFFSET 43.7702 0 0
      CHANNELS 3 Zrotation Xrotation Yrotation
      JOINT LeftFoot
      {
        OFFSET 40.6238 0 0
        CHANNELS 3 Zrotation Xrotation Yrotation
        JOINT LeftToeBase
        {
          OFFSET 12.7242 0 0
          CHANNELS 3 Zrotation Xrotation Yrotation
          End Site
          {
            OFFSET 0 0 0
          }
        }
      }
    }
  }
  JOINT RightUpLeg
  {
    OFFSET -8.2249 1.95398 -2.59336
    CHANNELS 3 Zrotation Xrotation Yrotation
    JOINT RightLeg
    {
      OFFSET 43.5653 0 0
      CHANNELS 3 Zrotation Xrotation Yrotation
      JOINT RightFoot
      {
        OFFSET 40.6238 0 0
        CHANNELS 3 Zrotation Xrotation Yrotation
        JOINT RightToeBase
        {
          OFFSET 12.7242 0 0
          CHANNELS 3 Zrotation Xrotation Yrotation
          End Site
          {
            OFFSET 0 0 0
          }
        }
      }
    }
  }
  JOINT Spine
  {
    OFFSET 0.165834 0.87714 6.61349
    CHANNELS 3 Zrotation Xrotation Yrotation
    JOINT Spine1
    {
      OFFSET 7.38963 1.71661e-005 0
      CHANNELS 3 Zrotation Xrotation Yrotation
      JOINT Spine2
      {
        OFFSET 11.9445 1.14441e-005 0
        CHANNELS 3 Zrotation Xrotation Yrotation
        JOINT Spine3
        {
          OFFSET 14.7254 4.19617e-005 0
          CHANNELS 3 Zrotation Xrotation Yrotation
          JOINT Spine4
          {
            OFFSET 10.9679 0 0
            CHANNELS 3 Zrotation Xrotation Yrotation
            JOINT RightShoulder
            {
              OFFSET 2.46616 -1.6653 3.69651
              CHANNELS 3 Zrotation Xrotation Yrotation
              JOINT RightArm
              {
                OFFSET 13.0012 0 0
                CHANNELS 3 Zrotation Xrotation Yrotation
                JOINT RightForeArm
                {
                  OFFSET 28.7848 1.62311e-005 0
                  CHANNELS 3 Zrotation Xrotation Yrotation
                  JOINT RightHand
                  {
                    OFFSET 26.5688 1.62095e-005 0
                    CHANNELS 3 Zrotation Xrotation Yrotation
                    End Site
                    {
                      OFFSET 0 0 0
                    }
                  }
                }
              }
            }
            JOINT LeftShoulder
            {
              OFFSET 2.38034 -1.29275 -3.7523
              CHANNELS 3 Zrotation Xrotation Yrotation
              JOINT LeftArm
              {
                OFFSET 16.3182 6.07031e-005 0
                CHANNELS 3 Zrotation Xrotation Yrotation
                JOINT LeftForeArm
                {
                  OFFSET 27.0901 0 0
                  CHANNELS 3 Zrotation Xrotation Yrotation
                  JOINT LeftHand
                  {
                    OFFSET 24.5451 1.51738e-005 0
                    CHANNELS 3 Zrotation Xrotation Yrotation
                    End Site
                    {
                      OFFSET 0 0 0
                    }
                  }
                }
              }
            }
            JOINT Neck
            {
              OFFSET 5.0226 -0.0266342 0
              CHANNELS 3 Zrotation Xrotation Yrotation
              JOINT Head
              {
                OFFSET 6.69364 2.86102e-005 0
                CHANNELS 3 Zrotation Xrotation Yrotation
                End Site
                {
                  OFFSET 0 0 0
                }
              }
            }
          }
        }
      }
    }
  }
}
MOTION
Frames:	14
Frame Time:	0.0416667
-23.0742 88.0667 27.1204 95.6205 53.6441 85.4737 -179.775 40.4129 82.9828 -72.4897 18.5671 3.19397 53.2856 -6.02171 4.49813 43.2856 6.91596 11.5772 169.826 17.0082 96.2997 -58.2543 -10.5912 1.39023 69.7292 -11.7989 -0.999423 43.5078 -19.5399 -0.324469 0.148674 10.5542 -90.039 5.76553 0.280783 -0.0841357 -5.90539 0.276794 -0.0964206 -28.4408 0.293069 0.00413856 -8.42814 0.293081 0.0041385 96.1749 -49.7694 -91.3291 23.3668 -10.6059 -9.86131 -5.51595 1.2444 -55.3122 -9.39384 0.0334308 -5.88429 -87.3325 -57.6332 83.9342 -13.5159 -19.6465 -6.57355 -5.34414 35.2132 -5.88555 8.48091 -1.17308 -15.7288 26.6702 9.95223 -18.4806 -20.3818 11.0729 33.7081 
-37.6344 87.6944 42.6075 91.2337 57.2565 90.9509 -179.755 34.8763 88.1678 -91.9013 15.0831 6.01407 54.1625 -2.22114 11.503 41.5867 5.84234 9.24594 169.493 31.3595 97.8777 -52.1638 -12.5654 4.03071 68.1701 -10.4985 -6.36668 33.8817 -6.546 2.36181 -0.214494 10.2848 -90.2653 6.30147 -0.540657 -0.504547 -5.36946 -0.562362 -0.480271 -27.9041 -0.364034 -0.64371 -7.89143 -0.36404 -0.643717 94.8015 -51.7902 -93.1765 27.016 -11.7856 -3.78566 -10.3873 -10.1576 -41.1754 -13.5289 -0.373718 -2.02507 -86.9167 -56.7896 84.3891 -13.8248 -16.8284 -20.2886 -0.576972 25.4933 -18.8783 12.8313 -1.50635 -14.944 26.4273 15.5536 -23.118 -28.7452 13.7062 42.0266 
-53.2636 93.0168 58.0984 85.3986 56.9623 93.6663 178.706 23.6134 87.7346 -75.1708 18.9576 5.43967 54.356 -1.15701 9.92896 43.6203 6.72462 7.73009 175.43 39.1348 89.0357 -33.732 -10.0601 3.32484 58.9131 14.1414 14.6725 22.6712 8.0893 0.579858 -0.45615 10.2479 -89.8148 6.38368 -0.8326 0.390721 -5.287 -0.814579 0.426978 -27.8249 -0.91154 0.122412 -7.81226 -0.911537 0.122403 94.3767 -50.6055 -94.0004 33.3659 -14.9132 2.26835 -5.38722 -2.70284 -38.3089 -7.79772 -0.0209845 -5.26923 -87.056 -56.2364 84.114 -7.95994 -12.3403 -26.4867 7.62235 17.9335 -46.187 13.1803 -1.90417 -17.4373 30.116 22.4024 -28.2607 -39.7082 15.5289 51.9341 
-69.0231 93.1505 72.2064 83.0679 50.3569 94.9856 178.656 19.2814 85.1664 -57.8436 23.8097 3.80874 54.3787 -5.21077 3.57668 47.9658 8.39777 4.72083 172.177 42.1641 89.782 -47.4874 -14.0566 3.30554 56.842 12.1303 8.89632 30.563 -2.38929 -5.53102 0.137121 10.1361 -89.5542 6.59853 0.46381 0.860407 -5.07266 0.501234 0.839149 -27.6052 0.183804 0.960012 -7.59261 0.183802 0.96001 93.8614 -47.2103 -95.3463 33.822 -17.2952 -1.25315 -2.57341 0.0538789 -35.5327 -8.54389 0.0325916 -5.96908 -86.9482 -57.0443 84.3827 -5.67538 -8.49971 -23.541 9.6167 12.6067 -61.2192 19.2718 -2.07625 -14.8782 27.5205 30.0696 -28.206 -45.6049 16.7002 58.8882 
-83.9433 88.6775 85.6848 88.2397 46.853 93.197 179.439 22.2174 83.9254 -56.6073 26.1749 3.25325 62.1663 9.49451 17.4889 55.3265 12.1473 6.36154 168.979 36.2942 91.5188 -87.0065 -16.3011 -1.16592 59.149 6.93907 6.98084 32.5793 -5.39633 -6.09584 0.67727 10.0023 -89.7853 6.8669 1.44463 0.363571 -4.80328 1.45923 0.299616 -27.3433 1.26856 0.780994 -7.33061 1.26856 0.780988 94.7181 -43.0927 -94.643 32.9269 -12.5398 -5.32561 -0.78777 1.70509 -38.7607 -9.66169 -0.117866 -3.94743 -86.2656 -60.6995 85.8033 -10.0779 -12.3242 -16.0124 6.64578 21.6332 -40.1021 14.9004 -1.95974 -16.6309 20.4718 35.3786 -26.6352 -48.3084 16.8919 62.3688 
-98.0337 87.9249 99.0817 88.2098 47.4217 91.3089 175.176 31.6524 82.1901 -47.7601 25.5164 3.03038 60.2481 6.2731 20.3055 45.7126 7.28118 3.42671 172.901 19.9214 89.927 -89.4858 -24.135 -1.91606 60.314 2.83044 5.24939 37.0491 -12.1342 -6.75386 1.00357 9.8527 -89.608 7.16277 2.17283 0.674283 -4.50646 2.2004 0.577947 -27.0519 1.8697 1.2963 -7.03925 1.86971 1.2963 94.8476 -42.1375 -94.5868 31.2204 -13.2703 -7.80386 -1.782 1.58252 -42.7295 -10.7494 -0.0788442 -4.59598 -86.6308 -65.3295 85.8948 -8.51905 -20.1563 -8.58063 -3.82576 36.2955 -9.85039 14.0189 -1.54413 -14.4283 16.2075 35.866 -22.5462 -46.2329 17.158 61.5149 
-112.151 91.9512 115.152 81.6845 52.4981 95.7819 172.341 39.1277 86.8432 -28.9636 24.6507 1.52345 50.3479 -13.2452 -0.22144 35.3049 2.90754 6.85506 174.157 11.6362 95.9336 -62.7183 -16.1476 -0.534893 61.502 3.73991 12.8932 35.8682 -10.3533 -6.84433 0.902126 9.71392 -89.4986 7.43872 2.01845 0.894366 -4.2309 2.05583 0.804629 -26.7728 1.65633 1.45972 -6.76019 1.65634 1.45972 95.5325 -43.6344 -93.1867 28.6061 -19.9155 -9.1645 -3.1415 3.79059 -45.0759 -7.30328 0.126437 -7.71288 -86.3947 -64.0086 86.0374 -7.35038 -22.4799 -0.486249 -7.03902 34.6018 -2.44642 10.381 -1.17348 -14.0451 20.0493 32.9967 -23.2602 -46.4055 15.929 59.0869 
-126.763 89.7605 130.285 85.1347 61.1714 91.9277 173.567 42.5441 83.3283 -53.8636 23.019 2.66908 51.5598 -9.54301 0.581153 48.0042 9.49177 12.2724 172.237 10.0821 98.4618 -51.6645 -11.4713 1.748 64.9998 1.88731 12.9301 34.689 -7.90237 -0.286034 0.599755 10.1434 -89.7927 6.58496 1.2864 0.355975 -5.0854 1.30081 0.298991 -27.6241 1.11993 0.72617 -7.61147 1.11994 0.726163 96.3664 -44.0984 -91.7255 30.4392 -19.2075 -4.77457 -3.84877 2.71831 -45.0594 -7.20083 0.0851262 -7.03385 -87.1912 -61.4988 84.6726 -8.55135 -21.1428 -2.8021 -5.52714 35.4838 -5.58336 9.82597 -1.24824 -15.1803 20.9052 28.18 -24.4488 -43.8407 14.1622 56.1371 
-141.382 85.6843 145.638 85.1417 62.2126 92.33 178.176 41.6395 84.7058 -87.061 15.0671 5.40913 54.9551 -2.48792 7.84151 45.264 8.274 14.2333 171.882 22.2725 101.618 -55.7021 -14.3124 2.17823 71.6331 -16.8056 -4.64111 38.0523 -12.2883 0.019494 0.661175 10.0967 -90.0878 6.68171 1.28326 -0.222633 -4.98864 1.27222 -0.278908 -27.5288 1.29084 0.173399 -7.51619 1.29083 0.173399 95.8701 -45.9592 -92.2966 31.8279 -12.3276 -4.44054 -2.40284 -4.42574 -30.9368 -9.26116 -0.0260346 -5.10949 -86.6154 -62.3614 85.5474 -6.88019 -18.6109 -11.2979 -2.53599 32.6774 -14.1541 10.2428 -1.35491 -15.7716 18.7739 23.1916 -18.1545 -33.0001 14.7606 48.8903 
-154.832 88.4595 160.949 84.1525 67.5245 95.2585 174.334 28.6614 90.7158 -86.4228 18.9652 7.13558 52.7515 -3.18546 11.9283 39.0485 4.73542 13.1409 173.364 32.6318 99.1653 -46.3183 -12.1816 2.63849 68.7314 -6.27879 -1.77593 27.8317 1.02208 2.36509 -0.106257 10.2464 -90.2912 6.37901 -0.335618 -0.560354 -5.29196 -0.359945 -0.545051 -27.8266 -0.151701 -0.635311 -7.81389 -0.151687 -0.635306 95.4781 -48.5734 -92.5701 32.6844 -10.7108 -6.41244 0.576454 -7.08232 -19.1563 -7.73693 -0.0438107 -5.13026 -87.6547 -57.8723 83.5264 -10.0116 -15.3455 -17.3909 2.92234 22.8406 -30.3308 14.2208 -1.58512 -14.586 20.4221 14.3602 -13.5418 -22.8302 11.8753 34.9019 
-169.136 94.2616 175.724 71.9492 64.4726 106.118 175.857 20.4207 90.0348 -60.5626 20.7636 6.19541 52.9758 -4.10074 5.51455 41.9935 6.11475 9.54635 177.192 39.0739 90.9567 -31.9664 -12.7095 2.4532 59.0257 13.3367 13.2013 23.3824 8.0452 -4.51109 -0.230676 10.0453 -90.0308 6.7848 -0.47374 -0.0445331 -4.88606 -0.475254 -0.0236485 -27.422 -0.438463 -0.184859 -7.40933 -0.438469 -0.18486 94.1637 -49.5421 -94.4919 29.5746 -15.5988 -5.47708 0.705089 -2.06869 -22.0003 -5.41799 0.142192 -8.84888 -87.2493 -56.5938 83.8954 -4.6437 -10.0472 -20.533 11.9179 16.1975 -56.1524 12.0487 -1.64951 -16.5879 23.621 6.6541 -7.38996 -12.6767 7.07426 19.9538 
-182.98 92.6835 189.805 74.6967 60.5986 105.733 175.137 16.7351 88.5617 -47.7352 23.596 6.31892 54.7261 -4.2857 4.52881 55.5276 11.8498 4.90409 167.938 40.6831 95.07 -62.9349 -11.4012 2.37747 61.7197 4.69244 7.28677 28.863 0.126935 -5.5106 -0.151498 10.0057 -89.9976 6.86255 -0.30157 0.0171182 -4.80835 -0.300519 0.0303652 -27.3438 -0.292756 -0.0743044 -7.33117 -0.292772 -0.0743157 94.6741 -47.9917 -93.9239 24.2707 -14.6712 -9.71809 0.760471 -1.70175 -23.6872 -8.02028 0.13434 -7.64313 -86.2348 -55.3793 85.1517 -1.96624 -9.20229 -14.6966 10.6172 10.5883 -64.4844 14.7396 -1.75047 -15.4209 22.4219 3.06924 -6.97146 -8.38435 4.46742 14.7476 
-196.72 88.1489 203.564 78.5552 57.6314 104.746 175.632 26.9511 87.5342 -52.8267 24.8224 5.12354 60.2082 6.83439 17.1789 56.1704 12.7304 7.14509 164.925 33.725 96.407 -96.21 -15.4848 -1.61551 60.1271 4.4879 4.10662 34.9172 -8.13012 0.200639 -0.0075643 9.94276 -90.0496 6.98841 -0.0363506 -0.0962271 -4.68255 -0.0405389 -0.0945443 -27.2177 -0.00576584 -0.102707 -7.20501 -0.00575004 -0.102709 94.9467 -48.7769 -93.3791 19.372 -4.71993 -11.5441 -4.21496 -5.29063 -37.5563 -9.42144 -0.0103137 -5.31349 -86.1271 -57.1881 85.5442 -4.34231 -18.9667 -7.69247 8.29073 20.6116 -39.6575 12.6686 -1.79138 -17.2009 26.5031 1.86378 -8.7151 -9.93569 4.09584 13.1996 
-209.749 88.0708 216.521 82.8355 51.8152 98.9555 176.915 32.6058 86.0098 -41.344 22.3115 1.86367 59.8438 3.93823 17.2536 43.374 6.11448 3.4459 172.541 20.7628 92.7892 -93.0328 -22.7529 -1.84339 59.9103 3.34572 5.5175 41.452 -16.4874 1.04179 0.557866 10.105 -89.665 6.65821 1.25728 0.611184 -5.01223 1.28294 0.555238 -27.5498 1.01545 0.960802 -7.53718 1.01545 0.960804 95.4483 -47.9545 -92.7027 17.6659 2.21252 -16.2974 -3.346 -3.17664 -47.9229 -11.8337 0.00900745 -5.5284 -86.4684 -59.9905 85.4408 -5.18519 -22.5697 0.493405 0.0402034 35.2605 -14.0096 12.2222 -1.3375 -14.1675 24.7491 0.594198 -7.0625 -8.13471 2.50899 10.5098 
